<svg width="29" height="29" viewBox="0 0 29 29" fill="none" xmlns="http://www.w3.org/2000/svg">
<path fill-rule="evenodd" clip-rule="evenodd" d="M19.7727 10.5455C19.7727 11.9439 19.2172 13.285 18.2284 14.2738C17.2396 15.2627 15.8984 15.8182 14.5 15.8182C13.1016 15.8182 11.7604 15.2627 10.7716 14.2738C9.78279 13.285 9.22727 11.9439 9.22727 10.5455C9.22727 9.14704 9.78279 7.8059 10.7716 6.81707C11.7604 5.82824 13.1016 5.27273 14.5 5.27273C15.8984 5.27273 17.2396 5.82824 18.2284 6.81707C19.2172 7.8059 19.7727 9.14704 19.7727 10.5455ZM17.1364 10.5455C17.1364 11.2447 16.8586 11.9152 16.3642 12.4096C15.8698 12.9041 15.1992 13.1818 14.5 13.1818C13.8008 13.1818 13.1302 12.9041 12.6358 12.4096C12.1414 11.9152 11.8636 11.2447 11.8636 10.5455C11.8636 9.84625 12.1414 9.17568 12.6358 8.68126C13.1302 8.18685 13.8008 7.90909 14.5 7.90909C15.1992 7.90909 15.8698 8.18685 16.3642 8.68126C16.8586 9.17568 17.1364 9.84625 17.1364 10.5455Z" fill="white"/>
<path fill-rule="evenodd" clip-rule="evenodd" d="M14.5 0C6.49205 0 0 6.49205 0 14.5C0 22.508 6.49205 29 14.5 29C22.508 29 29 22.508 29 14.5C29 6.49205 22.508 0 14.5 0ZM2.63636 14.5C2.63636 17.255 3.57623 19.7912 5.15145 21.8054C6.25799 20.3529 7.6852 19.1758 9.32171 18.3659C10.9582 17.556 12.7597 17.1352 14.5857 17.1364C16.3881 17.1343 18.1673 17.5438 19.7874 18.3338C21.4075 19.1237 22.8259 20.2732 23.9342 21.6946C25.0764 20.1967 25.8454 18.4482 26.1776 16.594C26.5099 14.7399 26.3958 12.8332 25.8449 11.0318C25.294 9.23048 24.3221 7.5862 23.0095 6.23505C21.6969 4.8839 20.0815 3.86472 18.2969 3.26185C16.5122 2.65898 14.6097 2.48974 12.7466 2.76815C10.8836 3.04655 9.11363 3.76458 7.5832 4.86284C6.05276 5.9611 4.80584 7.40801 3.94562 9.08385C3.0854 10.7597 2.6366 12.6163 2.63636 14.5ZM14.5 26.3636C11.7765 26.3681 9.13519 25.4311 7.02327 23.7115C7.87325 22.4943 9.00476 21.5005 10.3215 20.8147C11.6382 20.1289 13.1011 19.7715 14.5857 19.7727C16.0517 19.7714 17.4969 20.12 18.8012 20.7895C20.1055 21.4589 21.2312 22.4299 22.0848 23.6218C19.9566 25.3974 17.2717 26.368 14.5 26.3636Z" fill="white"/>
</svg>
