<svg width="20" height="20" viewBox="0 0 20 20" fill="none" xmlns="http://www.w3.org/2000/svg">
<path d="M4.10843 9.99941C4.10843 9.76513 4.20166 9.54044 4.3676 9.37478C4.53355 9.20912 4.75862 9.11605 4.9933 9.11605H9.1144V5.00194C9.1144 4.76766 9.20763 4.54297 9.37357 4.37731C9.53952 4.21165 9.76459 4.11858 9.99927 4.11858C10.2339 4.11858 10.459 4.21165 10.625 4.37731C10.7909 4.54297 10.8841 4.76766 10.8841 5.00194V9.11605H15.0052C15.2399 9.11605 15.465 9.20912 15.6309 9.37478C15.7969 9.54044 15.8901 9.76513 15.8901 9.99941C15.8901 10.2337 15.7969 10.4584 15.6309 10.624C15.465 10.7897 15.2399 10.8828 15.0052 10.8828H10.8841V14.9969C10.8841 15.2312 10.7909 15.4559 10.625 15.6215C10.459 15.7872 10.2339 15.8802 9.99927 15.8802C9.76459 15.8802 9.53952 15.7872 9.37357 15.6215C9.20763 15.4559 9.1144 15.2312 9.1144 14.9969V10.8828H4.9933C4.75862 10.8828 4.53355 10.7897 4.3676 10.624C4.20166 10.4584 4.10843 10.2337 4.10843 9.99941Z" fill="#005A88"/>
<path fill-rule="evenodd" clip-rule="evenodd" d="M4.47418 0.304811C8.14632 -0.101604 11.8522 -0.101604 15.5244 0.304811C17.6799 0.545086 19.4201 2.23996 19.6726 4.40361C20.1091 8.12197 20.1091 11.878 19.6726 15.5964C19.4189 17.76 17.6787 19.4537 15.5244 19.6952C11.8522 20.1016 8.14632 20.1016 4.47418 19.6952C2.31865 19.4537 0.578414 17.76 0.325933 15.5964C-0.108644 11.8781 -0.108644 8.12192 0.325933 4.40361C0.578414 2.23996 2.31983 0.545086 4.47418 0.304811ZM15.3285 2.05976C11.7865 1.66781 8.21201 1.66781 4.67003 2.05976C4.01433 2.13238 3.40231 2.42355 2.93283 2.88625C2.46336 3.34894 2.16384 3.95613 2.08268 4.60973C1.66306 8.19143 1.66306 11.8097 2.08268 15.3914C2.16409 16.0448 2.46371 16.6517 2.93317 17.1142C3.40262 17.5767 4.01451 17.8677 4.67003 17.9402C8.18235 18.3313 11.8162 18.3313 15.3285 17.9402C15.9838 17.8674 16.5954 17.5763 17.0646 17.1139C17.5339 16.6514 17.8333 16.0447 17.9147 15.3914C18.3343 11.8097 18.3343 8.19143 17.9147 4.60973C17.8331 3.95674 17.5335 3.35023 17.0643 2.88802C16.5951 2.42582 15.9836 2.13487 15.3285 2.06211" fill="#005A88"/>
</svg>
