<svg width="34" height="34" viewBox="0 0 34 34" fill="none" xmlns="http://www.w3.org/2000/svg">
<path d="M7.29408 9.05897H5.52939C4.59334 9.05897 3.69562 9.43081 3.03373 10.0927C2.37185 10.7546 2 11.6523 2 12.5884V28.4706C2 29.4067 2.37185 30.3044 3.03373 30.9663C3.69562 31.6282 4.59334 32 5.52939 32H21.4116C22.3477 32 23.2454 31.6282 23.9073 30.9663C24.5692 30.3044 24.941 29.4067 24.941 28.4706V26.7059M23.1763 5.52958L28.4704 10.8237M30.9145 8.32662C31.6095 7.6316 32 6.68895 32 5.70605C32 4.72314 31.6095 3.7805 30.9145 3.08548C30.2195 2.39046 29.2769 2 28.294 2C27.311 2 26.3684 2.39046 25.6734 3.08548L10.8235 17.8824V23.1765H16.1176L30.9145 8.32662Z" stroke="white" stroke-width="4" stroke-linecap="round" stroke-linejoin="round"/>
</svg>
