<svg width="42" height="43" viewBox="0 0 42 43" fill="none" xmlns="http://www.w3.org/2000/svg">
<rect width="42" height="43" rx="5" fill="#FB8FFF" fill-opacity="0.3"/>
<path d="M32.2 9H9.8C9.05739 9 8.3452 9.29266 7.8201 9.81359C7.295 10.3345 7 11.0411 7 11.7778V14.5556C7.00295 15.0403 7.13372 15.5159 7.37933 15.935C7.62493 16.354 7.97681 16.7021 8.4 16.9444V31.2222C8.4 31.9589 8.695 32.6655 9.2201 33.1864C9.7452 33.7073 10.4574 34 11.2 34H30.8C31.5426 34 32.2548 33.7073 32.7799 33.1864C33.305 32.6655 33.6 31.9589 33.6 31.2222V16.9444C34.0232 16.7021 34.3751 16.354 34.6207 15.935C34.8663 15.5159 34.9971 15.0403 35 14.5556V11.7778C35 11.0411 34.705 10.3345 34.1799 9.81359C33.6548 9.29266 32.9426 9 32.2 9ZM9.8 11.7778H32.2V14.5556H9.8V11.7778ZM11.2 31.2222V17.3333H30.8V31.2222H11.2Z" fill="white"/>
<path d="M15.4 20.1111H26.6V22.8889H15.4V20.1111Z" fill="white"/>
</svg>
