<svg width="20" height="20" viewBox="0 0 20 20" fill="none" xmlns="http://www.w3.org/2000/svg">
<path d="M19 15V17C19 17.5304 18.7893 18.0391 18.4142 18.4142C18.0391 18.7893 17.5304 19 17 19H3C2.46957 19 1.96086 18.7893 1.58579 18.4142C1.21071 18.0391 1 17.5304 1 17V15M19 5V3C19 2.46957 18.7893 1.96086 18.4142 1.58579C18.0391 1.21071 17.5304 1 17 1H3C2.46957 1 1.96086 1.21071 1.58579 1.58579C1.21071 1.96086 1 2.46957 1 3V5M11 10C11 10.5523 10.5523 11 10 11C9.44772 11 9 10.5523 9 10C9 9.44772 9.44772 9 10 9C10.5523 9 11 9.44772 11 10ZM16.944 10.33C17.0187 10.1163 17.0187 9.88366 16.944 9.67C16.381 8.29043 15.4198 7.10982 14.1831 6.27876C12.9463 5.44771 11.49 5.00388 10 5.00388C8.50996 5.00388 7.0537 5.44771 5.81694 6.27876C4.58019 7.10982 3.61901 8.29043 3.056 9.67C2.98131 9.88366 2.98131 10.1163 3.056 10.33C3.61901 11.7096 4.58019 12.8902 5.81694 13.7212C7.0537 14.5523 8.50996 14.9961 10 14.9961C11.49 14.9961 12.9463 14.5523 14.1831 13.7212C15.4198 12.8902 16.381 11.7096 16.944 10.33Z" stroke="#005F93" stroke-width="2" stroke-linecap="round" stroke-linejoin="round"/>
</svg>
